# xmcd CD database file
#
# Track frame offsets:
#	150
#	12118
#	25683
#	40463
#	48970
#	63715
#	73633
#	86738
#	102413
#	119360
#	129565
#	142748
#	158775
#	172968
#	182643
#	198395
#	214898
#	233403
#	248930
#	262800
#
# Disc length: 3782 seconds
#
# Revision: 1
# Processed by: cddbd v1.5.2PL0 Copyright (c) Steve Scherf et al.
# Submitted via: CDex 1.51
#
DISCID=100ec414
DTITLE=Barbara Mandrell - Precious Memories
DYEAR=1989
DGENRE=Gospel
TTITLE0=I Love To Tell The Story
TTITLE1=Old Rugged Cross
TTITLE2=Farther Along
TTITLE3=Power In The Blood
TTITLE4=Pass Me Not O Gentle Savior
TTITLE5=Just A Little Talk With Jesus
TTITLE6=I Need Thee Every Hour
TTITLE7=Peace In The Valley
TTITLE8=Just A Closer Walk With Thee
TTITLE9=He Keeps Me Singing
TTITLE10=Have Thine Own Way Lord
TTITLE11=It Is No Secret (What God Can Do)
TTITLE12=Softly and Tenderly
TTITLE13=When We All Get To Heaven
TTITLE14=Sweet Hour Of Prayer
TTITLE15=In The Garden
TTITLE16=Where Could I Go (But To The Lord)?
TTITLE17=Let Me Live
TTITLE18=Blessed Assurance
TTITLE19=Precious Memories
EXTD=Released Heartland Music 1990 YEAR: 1989
EXTT0=
EXTT1=
EXTT2=
EXTT3=
EXTT4=
EXTT5=
EXTT6=
EXTT7=
EXTT8=
EXTT9=
EXTT10=
EXTT11=
EXTT12=
EXTT13=
EXTT14=
EXTT15=
EXTT16=
EXTT17=
EXTT18=
EXTT19=
PLAYORDER=
